<svg width="198" height="26" viewBox="0 0 198 26" fill="none" xmlns="http://www.w3.org/2000/svg">
<g id="Frame" clip-path="url(#clip0_1_257)">
<path id="Vector" fill-rule="evenodd" clip-rule="evenodd" d="M119.322 25.1879H117.197V0.871283H119.322V25.1879ZM169.809 0.871283V21.2541L150.832 0.871283V0.799988H148.636V25.1879H150.832V4.59013L169.809 25.1879V25.1156V25.1879H172.003V0.871283H169.809ZM143.821 0.871283V0.942578L121.304 25.1156H124.56L143.821 3.87509V17.9631H134.333V20.1805H143.821V25.1156H145.944V0.871283H143.821Z" fill="black"/>
<path id="Vector_2" fill-rule="evenodd" clip-rule="evenodd" d="M108.135 14.1006H108.277C111.817 14.1006 114.719 10.8829 114.719 7.3077C114.719 3.87508 112.028 1.01387 108.699 0.871283V0.799988H108.346H90.9284V25.1879H93.1237V3.01746H108.558C109.601 3.15473 110.557 3.66631 111.248 4.45631C111.939 5.2463 112.317 6.26048 112.312 7.30875C112.312 9.59751 110.541 11.8139 108.205 11.9576H105.232V14.3889H105.301L111.603 25.1166H115.074L108.135 14.1006ZM76.9079 0.799988L65.0837 0.871283V25.1869H82.8557C86.2538 24.9719 88.8739 22.1107 88.8739 18.6771C88.8739 16.3181 87.6701 14.3155 85.8291 13.1706C87.669 12.0278 88.8739 9.66775 88.8739 7.3077C88.8739 3.87508 86.2538 1.08517 82.9261 0.871283V0.799988H76.9079ZM76.9079 22.9694H67.278V3.01746H82.7842C83.8263 3.15475 84.7824 3.66637 85.4732 4.45639C86.164 5.24641 86.5421 6.26058 86.5367 7.30875C86.5367 9.6688 84.6252 11.8852 82.2879 11.9576V14.3868C84.6241 14.3868 86.5367 16.3181 86.5367 18.6771C86.5367 20.8945 84.8376 22.6821 82.7137 22.9694H76.9079Z" fill="black"/>
<path id="Vector_3" fill-rule="evenodd" clip-rule="evenodd" d="M0.646973 0.799988V25.1155H2.84231L22.102 4.44753V17.963H12.755V20.1805H22.102V25.1155H24.2269V0.799988H0.646973ZM2.84231 21.8255V13.5302H10.6311L2.84231 21.8255ZM2.84231 11.3127V3.01641H20.5438L12.755 11.3127H2.84231Z" fill="#00ACEC"/>
<path id="Vector_4" fill-rule="evenodd" clip-rule="evenodd" d="M185.315 0.799988C178.66 0.799988 173.207 6.23514 173.207 12.9588C173.207 19.6794 178.66 25.1879 185.315 25.1879C191.971 25.1879 197.353 19.6794 197.353 12.9588C197.353 6.23514 191.971 0.799988 185.315 0.799988ZM185.315 22.6119C180.075 22.6119 175.898 18.3216 175.898 13.1014C175.898 7.80886 180.075 3.58991 185.315 3.58991C190.484 3.58991 194.733 7.80886 194.733 13.1014C194.733 18.3216 190.484 22.6119 185.315 22.6119Z" fill="black"/>
<path id="Vector_5" fill-rule="evenodd" clip-rule="evenodd" d="M55.9486 3.15997V0.942511H32.2278V25.1878H34.3527V14.0292H48.327L38.0337 25.1155H41.2909L60.4802 3.87502V17.963H51.0627V20.1805H60.4802L60.6211 25.2591H62.8164L62.6755 0.871216H60.4802V0.942511L50.3856 11.8128H34.3527V3.15997H55.9486Z" fill="black"/>
</g>
<defs>
<clipPath id="clip0_1_257">
<rect width="196.706" height="24.4593" fill="white" transform="translate(0.646973 0.799988)"/>
</clipPath>
</defs>
</svg>
