<svg width="89" height="11" viewBox="0 0 89 11" fill="none" xmlns="http://www.w3.org/2000/svg">
<path d="M5.99854 7.66406C5.99854 7.44824 5.96468 7.25781 5.89697 7.09277C5.8335 6.9235 5.71924 6.77116 5.5542 6.63574C5.39339 6.50033 5.16911 6.37126 4.88135 6.24854C4.59782 6.12581 4.23812 6.00098 3.80225 5.87402C3.34521 5.73861 2.93262 5.58838 2.56445 5.42334C2.19629 5.25407 1.88102 5.06152 1.61865 4.8457C1.35628 4.62988 1.15527 4.38232 1.01562 4.10303C0.875977 3.82373 0.806152 3.50423 0.806152 3.14453C0.806152 2.78483 0.880208 2.45264 1.02832 2.14795C1.17643 1.84326 1.38802 1.57878 1.66309 1.35449C1.94238 1.12598 2.27458 0.948242 2.65967 0.821289C3.04476 0.694336 3.47428 0.630859 3.94824 0.630859C4.64225 0.630859 5.23047 0.76416 5.71289 1.03076C6.19954 1.29313 6.56982 1.63802 6.82373 2.06543C7.07764 2.48861 7.20459 2.94141 7.20459 3.42383H5.98584C5.98584 3.07682 5.91178 2.77002 5.76367 2.50342C5.61556 2.23258 5.39128 2.021 5.09082 1.86865C4.79036 1.71208 4.40951 1.63379 3.94824 1.63379C3.51237 1.63379 3.15267 1.69938 2.86914 1.83057C2.58561 1.96175 2.37402 2.13949 2.23438 2.36377C2.09896 2.58805 2.03125 2.84408 2.03125 3.13184C2.03125 3.3265 2.07145 3.50423 2.15186 3.66504C2.23649 3.82161 2.36556 3.96761 2.53906 4.10303C2.7168 4.23844 2.94108 4.36328 3.21191 4.47754C3.48698 4.5918 3.81494 4.70182 4.1958 4.80762C4.72054 4.95573 5.17334 5.12077 5.5542 5.30273C5.93506 5.4847 6.24821 5.68994 6.49365 5.91846C6.74333 6.14274 6.92741 6.39876 7.0459 6.68652C7.16862 6.97005 7.22998 7.29167 7.22998 7.65137C7.22998 8.02799 7.15381 8.36865 7.00146 8.67334C6.84912 8.97803 6.63118 9.23828 6.34766 9.4541C6.06413 9.66992 5.72347 9.83708 5.32568 9.95557C4.93213 10.0698 4.49202 10.127 4.00537 10.127C3.57796 10.127 3.1569 10.0677 2.74219 9.94922C2.33171 9.83073 1.95719 9.65299 1.61865 9.41602C1.28434 9.17904 1.01562 8.88704 0.8125 8.54004C0.613607 8.1888 0.51416 7.78255 0.51416 7.32129H1.73291C1.73291 7.63867 1.79427 7.91162 1.91699 8.14014C2.03971 8.36442 2.20687 8.55062 2.41846 8.69873C2.63428 8.84684 2.8776 8.95687 3.14844 9.02881C3.4235 9.09652 3.70915 9.13037 4.00537 9.13037C4.43278 9.13037 4.7946 9.07113 5.09082 8.95264C5.38704 8.83415 5.61133 8.66488 5.76367 8.44482C5.92025 8.22477 5.99854 7.96452 5.99854 7.66406ZM10.1055 0.757812V10H8.88037V0.757812H10.1055ZM12.7207 0.757812H13.9077L16.9355 8.29248L19.957 0.757812H21.1504L17.3926 10H16.4658L12.7207 0.757812ZM12.3335 0.757812H13.3809L13.5522 6.39453V10H12.3335V0.757812ZM20.4839 0.757812H21.5312V10H20.3125V6.39453L20.4839 0.757812ZM27.0918 6.37549H24.6226V5.37891H27.0918C27.57 5.37891 27.9572 5.30273 28.2534 5.15039C28.5496 4.99805 28.7655 4.78646 28.9009 4.51562C29.0405 4.24479 29.1104 3.93587 29.1104 3.58887C29.1104 3.27148 29.0405 2.97314 28.9009 2.69385C28.7655 2.41455 28.5496 2.19027 28.2534 2.021C27.9572 1.84749 27.57 1.76074 27.0918 1.76074H24.9082V10H23.6831V0.757812H27.0918C27.79 0.757812 28.3804 0.878418 28.8628 1.11963C29.3452 1.36084 29.7113 1.69515 29.9609 2.12256C30.2106 2.54574 30.3354 3.03027 30.3354 3.57617C30.3354 4.16862 30.2106 4.67432 29.9609 5.09326C29.7113 5.51221 29.3452 5.83171 28.8628 6.05176C28.3804 6.26758 27.79 6.37549 27.0918 6.37549ZM37.4893 9.00342V10H32.8682V9.00342H37.4893ZM33.1094 0.757812V10H31.8843V0.757812H33.1094ZM44.7637 9.00342V10H39.8696V9.00342H44.7637ZM40.1172 0.757812V10H38.8921V0.757812H40.1172ZM44.1162 4.73145V5.72803H39.8696V4.73145H44.1162ZM44.7002 0.757812V1.76074H39.8696V0.757812H44.7002ZM68.7007 9.03516V10H62.6514V9.15576L65.6792 5.78516C66.0516 5.37044 66.3394 5.01921 66.5425 4.73145C66.7498 4.43945 66.8937 4.1792 66.9741 3.95068C67.0588 3.71794 67.1011 3.48096 67.1011 3.23975C67.1011 2.93506 67.0376 2.65999 66.9106 2.41455C66.7879 2.16488 66.606 1.96598 66.3647 1.81787C66.1235 1.66976 65.8315 1.5957 65.4888 1.5957C65.0783 1.5957 64.7355 1.67611 64.4604 1.83691C64.1896 1.99349 63.9865 2.21354 63.8511 2.49707C63.7157 2.7806 63.6479 3.10645 63.6479 3.47461H62.4736C62.4736 2.9541 62.5879 2.47803 62.8164 2.04639C63.0449 1.61475 63.3835 1.27197 63.832 1.01807C64.2806 0.759928 64.8328 0.630859 65.4888 0.630859C66.0728 0.630859 66.5721 0.734538 66.9868 0.941895C67.4015 1.14502 67.7189 1.43278 67.939 1.80518C68.1632 2.17334 68.2754 2.60498 68.2754 3.1001C68.2754 3.37093 68.2288 3.646 68.1357 3.92529C68.0469 4.20036 67.922 4.47542 67.7612 4.75049C67.6047 5.02555 67.4206 5.29639 67.209 5.56299C67.0016 5.82959 66.7795 6.09196 66.5425 6.3501L64.0669 9.03516H68.7007ZM75.7593 4.64258V6.05176C75.7593 6.80924 75.6916 7.44824 75.5562 7.96875C75.4207 8.48926 75.2261 8.9082 74.9722 9.22559C74.7183 9.54297 74.4115 9.7736 74.0518 9.91748C73.6963 10.0571 73.2943 10.127 72.8457 10.127C72.4902 10.127 72.1623 10.0825 71.8618 9.99365C71.5614 9.90479 71.2905 9.76302 71.0493 9.56836C70.8123 9.36947 70.6092 9.11133 70.4399 8.79395C70.2707 8.47656 70.1416 8.09147 70.0527 7.63867C69.9639 7.18587 69.9194 6.6569 69.9194 6.05176V4.64258C69.9194 3.88509 69.9871 3.25033 70.1226 2.73828C70.2622 2.22624 70.459 1.81576 70.7129 1.50684C70.9668 1.19368 71.2715 0.969401 71.627 0.833984C71.9867 0.698568 72.3887 0.630859 72.833 0.630859C73.1927 0.630859 73.5228 0.675293 73.8232 0.76416C74.1279 0.848796 74.3988 0.986328 74.6357 1.17676C74.8727 1.36296 75.0737 1.61263 75.2388 1.92578C75.408 2.2347 75.5371 2.61344 75.626 3.06201C75.7148 3.51058 75.7593 4.03743 75.7593 4.64258ZM74.5786 6.24219V4.4458C74.5786 4.03109 74.5532 3.66715 74.5024 3.354C74.4559 3.03662 74.3861 2.76579 74.293 2.5415C74.1999 2.31722 74.0814 2.13525 73.9375 1.99561C73.7979 1.85596 73.6349 1.75439 73.4487 1.69092C73.2668 1.62321 73.0615 1.58936 72.833 1.58936C72.5537 1.58936 72.3062 1.64225 72.0903 1.74805C71.8745 1.84961 71.6925 2.01253 71.5444 2.23682C71.4006 2.4611 71.2905 2.75521 71.2144 3.11914C71.1382 3.48307 71.1001 3.92529 71.1001 4.4458V6.24219C71.1001 6.6569 71.1234 7.02295 71.1699 7.34033C71.2207 7.65771 71.2948 7.93278 71.3921 8.16553C71.4894 8.39404 71.6079 8.58236 71.7476 8.73047C71.8872 8.87858 72.048 8.98861 72.23 9.06055C72.4162 9.12826 72.6214 9.16211 72.8457 9.16211C73.1335 9.16211 73.3853 9.1071 73.6011 8.99707C73.8169 8.88704 73.9967 8.71566 74.1406 8.48291C74.2887 8.24593 74.3988 7.94336 74.4707 7.5752C74.5426 7.2028 74.5786 6.75846 74.5786 6.24219ZM83.3257 9.03516V10H77.2764V9.15576L80.3042 5.78516C80.6766 5.37044 80.9644 5.01921 81.1675 4.73145C81.3748 4.43945 81.5187 4.1792 81.5991 3.95068C81.6838 3.71794 81.7261 3.48096 81.7261 3.23975C81.7261 2.93506 81.6626 2.65999 81.5356 2.41455C81.4129 2.16488 81.231 1.96598 80.9897 1.81787C80.7485 1.66976 80.4565 1.5957 80.1138 1.5957C79.7033 1.5957 79.3605 1.67611 79.0854 1.83691C78.8146 1.99349 78.6115 2.21354 78.4761 2.49707C78.3407 2.7806 78.2729 3.10645 78.2729 3.47461H77.0986C77.0986 2.9541 77.2129 2.47803 77.4414 2.04639C77.6699 1.61475 78.0085 1.27197 78.457 1.01807C78.9056 0.759928 79.4578 0.630859 80.1138 0.630859C80.6978 0.630859 81.1971 0.734538 81.6118 0.941895C82.0265 1.14502 82.3439 1.43278 82.564 1.80518C82.7882 2.17334 82.9004 2.60498 82.9004 3.1001C82.9004 3.37093 82.8538 3.646 82.7607 3.92529C82.6719 4.20036 82.547 4.47542 82.3862 4.75049C82.2297 5.02555 82.0456 5.29639 81.834 5.56299C81.6266 5.82959 81.4045 6.09196 81.1675 6.3501L78.6919 9.03516H83.3257ZM88.4419 0.707031V10H87.2676V2.17334L84.8999 3.03662V1.97656L88.2578 0.707031H88.4419Z" fill="#4C5866"/>
<path d="M53.6821 5.84229H52.2983L52.2856 5.02979H53.5742C53.752 5.02555 53.917 4.99382 54.0693 4.93457C54.2259 4.87533 54.3507 4.79069 54.4438 4.68066C54.5412 4.56641 54.5898 4.42676 54.5898 4.26172C54.5898 4.05013 54.5539 3.88298 54.4819 3.76025C54.41 3.63753 54.2894 3.54867 54.1201 3.49365C53.9551 3.43864 53.7287 3.41113 53.4409 3.41113H52.5776V7.98779H51.6826V2.60498H53.4409C53.8599 2.60498 54.2217 2.66423 54.5264 2.78271C54.8311 2.9012 55.0659 3.08105 55.231 3.32227C55.396 3.55924 55.4785 3.8597 55.4785 4.22363C55.4785 4.45215 55.4256 4.65739 55.3198 4.83936C55.214 5.02132 55.0596 5.1779 54.8564 5.30908C54.6533 5.44027 54.4058 5.54606 54.1138 5.62646C54.1011 5.62646 54.0863 5.64128 54.0693 5.6709C54.0566 5.69629 54.0439 5.70898 54.0312 5.70898C53.9593 5.7513 53.9128 5.78304 53.8916 5.8042C53.8747 5.82113 53.8556 5.83171 53.8345 5.83594C53.8175 5.84017 53.7668 5.84229 53.6821 5.84229ZM53.6187 5.84229L53.7456 5.271C54.4015 5.271 54.848 5.41064 55.085 5.68994C55.3262 5.96501 55.4468 6.31413 55.4468 6.7373V7.08008C55.4468 7.23665 55.4552 7.38688 55.4722 7.53076C55.4891 7.67041 55.5166 7.7889 55.5547 7.88623V7.98779H54.6343C54.592 7.87777 54.5666 7.72119 54.5581 7.51807C54.5539 7.31494 54.5518 7.16683 54.5518 7.07373V6.74365C54.5518 6.43473 54.4798 6.20833 54.3359 6.06445C54.1963 5.91634 53.9572 5.84229 53.6187 5.84229ZM49.7402 5.37256C49.7402 5.93538 49.8376 6.46012 50.0322 6.94678C50.2269 7.43343 50.4977 7.85872 50.8447 8.22266C51.1917 8.58659 51.5938 8.87012 52.0508 9.07324C52.5078 9.27637 52.9966 9.37793 53.5171 9.37793C54.0376 9.37793 54.5243 9.27637 54.9771 9.07324C55.4341 8.87012 55.834 8.58659 56.1768 8.22266C56.5238 7.85872 56.7946 7.43343 56.9893 6.94678C57.1839 6.46012 57.2812 5.93538 57.2812 5.37256C57.2812 4.8055 57.1839 4.28076 56.9893 3.79834C56.7946 3.31592 56.5238 2.89486 56.1768 2.53516C55.834 2.17122 55.4341 1.88981 54.9771 1.69092C54.5243 1.48779 54.0376 1.38623 53.5171 1.38623C52.9966 1.38623 52.5078 1.48779 52.0508 1.69092C51.5938 1.88981 51.1917 2.17122 50.8447 2.53516C50.4977 2.89486 50.2269 3.31592 50.0322 3.79834C49.8376 4.28076 49.7402 4.8055 49.7402 5.37256ZM49.0103 5.37256C49.0103 4.69971 49.1266 4.07552 49.3594 3.5C49.5921 2.92448 49.9159 2.42301 50.3306 1.99561C50.7453 1.56396 51.2235 1.22965 51.7651 0.992676C52.311 0.751465 52.895 0.630859 53.5171 0.630859C54.1392 0.630859 54.721 0.751465 55.2627 0.992676C55.8086 1.22965 56.2868 1.56396 56.6973 1.99561C57.112 2.42301 57.4357 2.92448 57.6685 3.5C57.9012 4.07552 58.0176 4.69971 58.0176 5.37256C58.0176 6.04541 57.9012 6.6696 57.6685 7.24512C57.4357 7.82064 57.112 8.32633 56.6973 8.76221C56.2868 9.19385 55.8086 9.53027 55.2627 9.77148C54.721 10.0127 54.1392 10.1333 53.5171 10.1333C52.895 10.1333 52.311 10.0127 51.7651 9.77148C51.2235 9.53027 50.7453 9.19385 50.3306 8.76221C49.9159 8.32633 49.5921 7.82064 49.3594 7.24512C49.1266 6.6696 49.0103 6.04541 49.0103 5.37256Z" fill="#BCBCBC"/>
</svg>
