<svg width="130" height="23" viewBox="0 0 130 23" fill="none" xmlns="http://www.w3.org/2000/svg">
<path d="M12.5098 3.78125V18H10.6348V5.32422H3.62305V18H1.73828V3.78125H12.5098ZM15.1758 12.834V12.6094C15.1758 11.8477 15.2865 11.1413 15.5078 10.4902C15.7292 9.83268 16.0482 9.26302 16.4648 8.78125C16.8815 8.29297 17.3861 7.91536 17.9785 7.64844C18.571 7.375 19.235 7.23828 19.9707 7.23828C20.7129 7.23828 21.3802 7.375 21.9727 7.64844C22.5716 7.91536 23.0794 8.29297 23.4961 8.78125C23.9193 9.26302 24.2415 9.83268 24.4629 10.4902C24.6842 11.1413 24.7949 11.8477 24.7949 12.6094V12.834C24.7949 13.5957 24.6842 14.3021 24.4629 14.9531C24.2415 15.6042 23.9193 16.1738 23.4961 16.6621C23.0794 17.1439 22.5749 17.5215 21.9824 17.7949C21.3965 18.0618 20.7324 18.1953 19.9902 18.1953C19.248 18.1953 18.5807 18.0618 17.9883 17.7949C17.3958 17.5215 16.888 17.1439 16.4648 16.6621C16.0482 16.1738 15.7292 15.6042 15.5078 14.9531C15.2865 14.3021 15.1758 13.5957 15.1758 12.834ZM16.9824 12.6094V12.834C16.9824 13.3613 17.0443 13.8594 17.168 14.3281C17.2917 14.7904 17.4772 15.2005 17.7246 15.5586C17.9785 15.9167 18.2943 16.1999 18.6719 16.4082C19.0495 16.61 19.4889 16.7109 19.9902 16.7109C20.485 16.7109 20.918 16.61 21.2891 16.4082C21.6667 16.1999 21.9792 15.9167 22.2266 15.5586C22.474 15.2005 22.6595 14.7904 22.7832 14.3281C22.9134 13.8594 22.9785 13.3613 22.9785 12.834V12.6094C22.9785 12.0885 22.9134 11.597 22.7832 11.1348C22.6595 10.666 22.4707 10.2526 22.2168 9.89453C21.9694 9.52995 21.6569 9.24349 21.2793 9.03516C20.9082 8.82682 20.472 8.72266 19.9707 8.72266C19.4759 8.72266 19.0397 8.82682 18.6621 9.03516C18.291 9.24349 17.9785 9.52995 17.7246 9.89453C17.4772 10.2526 17.2917 10.666 17.168 11.1348C17.0443 11.597 16.9824 12.0885 16.9824 12.6094ZM28.2617 7.43359H30.0684L29.9121 11.3887C29.873 12.3913 29.7591 13.2572 29.5703 13.9863C29.3815 14.7155 29.1406 15.3372 28.8477 15.8516C28.5547 16.3594 28.2259 16.7858 27.8613 17.1309C27.5033 17.4759 27.1322 17.7656 26.748 18H25.8496L25.8984 16.5254L26.2695 16.5156C26.4844 16.2617 26.6927 16.0013 26.8945 15.7344C27.0964 15.4609 27.2819 15.1387 27.4512 14.7676C27.6204 14.39 27.7604 13.931 27.8711 13.3906C27.9883 12.8438 28.0632 12.1764 28.0957 11.3887L28.2617 7.43359ZM28.7109 7.43359H35.0684V18H33.2617V9.10352H28.7109V7.43359ZM25.4395 16.5156H36.4258V21.1152H34.6191V18H27.2461V21.1152H25.4297L25.4395 16.5156ZM40.2344 9.46484V22.0625H38.418V7.43359H40.0781L40.2344 9.46484ZM47.3535 12.6289V12.834C47.3535 13.6022 47.2624 14.3151 47.0801 14.9727C46.8978 15.6237 46.6309 16.1901 46.2793 16.6719C45.9342 17.1536 45.5078 17.528 45 17.7949C44.4922 18.0618 43.9095 18.1953 43.252 18.1953C42.5814 18.1953 41.9889 18.0846 41.4746 17.8633C40.9603 17.6419 40.5241 17.3197 40.166 16.8965C39.8079 16.4733 39.5215 15.9655 39.3066 15.373C39.0983 14.7806 38.9551 14.1133 38.877 13.3711V12.2773C38.9551 11.4961 39.1016 10.7962 39.3164 10.1777C39.5312 9.55924 39.8145 9.0319 40.166 8.5957C40.5241 8.15299 40.957 7.81771 41.4648 7.58984C41.9727 7.35547 42.5586 7.23828 43.2227 7.23828C43.8867 7.23828 44.4759 7.36849 44.9902 7.62891C45.5046 7.88281 45.9375 8.2474 46.2891 8.72266C46.6406 9.19792 46.9043 9.76758 47.0801 10.4316C47.2624 11.0892 47.3535 11.8216 47.3535 12.6289ZM45.5371 12.834V12.6289C45.5371 12.1016 45.4818 11.6068 45.3711 11.1445C45.2604 10.6758 45.0879 10.2656 44.8535 9.91406C44.6257 9.55599 44.3327 9.27604 43.9746 9.07422C43.6165 8.86589 43.1901 8.76172 42.6953 8.76172C42.2396 8.76172 41.8424 8.83984 41.5039 8.99609C41.1719 9.15234 40.8887 9.36393 40.6543 9.63086C40.4199 9.89128 40.2279 10.1908 40.0781 10.5293C39.9349 10.8613 39.8275 11.2064 39.7559 11.5645V14.0938C39.8861 14.5495 40.0684 14.9792 40.3027 15.3828C40.5371 15.7799 40.8496 16.1022 41.2402 16.3496C41.6309 16.5905 42.1224 16.7109 42.7148 16.7109C43.2031 16.7109 43.623 16.61 43.9746 16.4082C44.3327 16.1999 44.6257 15.9167 44.8535 15.5586C45.0879 15.2005 45.2604 14.7904 45.3711 14.3281C45.4818 13.8594 45.5371 13.3613 45.5371 12.834ZM49.1797 12.834V12.6094C49.1797 11.8477 49.2904 11.1413 49.5117 10.4902C49.7331 9.83268 50.0521 9.26302 50.4688 8.78125C50.8854 8.29297 51.39 7.91536 51.9824 7.64844C52.5749 7.375 53.2389 7.23828 53.9746 7.23828C54.7168 7.23828 55.3841 7.375 55.9766 7.64844C56.5755 7.91536 57.0833 8.29297 57.5 8.78125C57.9232 9.26302 58.2454 9.83268 58.4668 10.4902C58.6882 11.1413 58.7988 11.8477 58.7988 12.6094V12.834C58.7988 13.5957 58.6882 14.3021 58.4668 14.9531C58.2454 15.6042 57.9232 16.1738 57.5 16.6621C57.0833 17.1439 56.5788 17.5215 55.9863 17.7949C55.4004 18.0618 54.7363 18.1953 53.9941 18.1953C53.252 18.1953 52.5846 18.0618 51.9922 17.7949C51.3997 17.5215 50.8919 17.1439 50.4688 16.6621C50.0521 16.1738 49.7331 15.6042 49.5117 14.9531C49.2904 14.3021 49.1797 13.5957 49.1797 12.834ZM50.9863 12.6094V12.834C50.9863 13.3613 51.0482 13.8594 51.1719 14.3281C51.2956 14.7904 51.4811 15.2005 51.7285 15.5586C51.9824 15.9167 52.2982 16.1999 52.6758 16.4082C53.0534 16.61 53.4928 16.7109 53.9941 16.7109C54.4889 16.7109 54.9219 16.61 55.293 16.4082C55.6706 16.1999 55.9831 15.9167 56.2305 15.5586C56.4779 15.2005 56.6634 14.7904 56.7871 14.3281C56.9173 13.8594 56.9824 13.3613 56.9824 12.834V12.6094C56.9824 12.0885 56.9173 11.597 56.7871 11.1348C56.6634 10.666 56.4746 10.2526 56.2207 9.89453C55.9733 9.52995 55.6608 9.24349 55.2832 9.03516C54.9121 8.82682 54.4759 8.72266 53.9746 8.72266C53.4798 8.72266 53.0436 8.82682 52.666 9.03516C52.2949 9.24349 51.9824 9.52995 51.7285 9.89453C51.4811 10.2526 51.2956 10.666 51.1719 11.1348C51.0482 11.597 50.9863 12.0885 50.9863 12.6094ZM67.8418 2.83398H69.3262C69.3262 3.47201 69.2285 3.97982 69.0332 4.35742C68.8379 4.72852 68.571 5.01497 68.2324 5.2168C67.9004 5.41862 67.5228 5.57161 67.0996 5.67578C66.6829 5.77995 66.25 5.88086 65.8008 5.97852C65.2409 6.0957 64.7201 6.28125 64.2383 6.53516C63.763 6.78255 63.3529 7.13411 63.0078 7.58984C62.6693 8.04557 62.4186 8.63802 62.2559 9.36719C62.0996 10.0964 62.0573 10.998 62.1289 12.0723V12.9707H60.6445V12.0723C60.6445 10.8678 60.7585 9.81641 60.9863 8.91797C61.2207 8.01953 61.5495 7.26107 61.9727 6.64258C62.3958 6.02409 62.8971 5.53255 63.4766 5.16797C64.0625 4.80339 64.707 4.55273 65.4102 4.41602C65.918 4.31836 66.3542 4.21419 66.7188 4.10352C67.0833 3.98633 67.36 3.83008 67.5488 3.63477C67.7441 3.43945 67.8418 3.17253 67.8418 2.83398ZM65.7031 8.03906C66.3932 8.03906 67.0085 8.15951 67.5488 8.40039C68.0892 8.64128 68.5482 8.97656 68.9258 9.40625C69.3034 9.83594 69.5898 10.3438 69.7852 10.9297C69.987 11.5091 70.0879 12.1406 70.0879 12.8242V13.0391C70.0879 13.7747 69.9805 14.4583 69.7656 15.0898C69.5573 15.7148 69.248 16.2617 68.8379 16.7305C68.4342 17.1927 67.9395 17.554 67.3535 17.8145C66.7741 18.0749 66.1133 18.2051 65.3711 18.2051C64.6289 18.2051 63.9648 18.0749 63.3789 17.8145C62.7995 17.554 62.3047 17.1927 61.8945 16.7305C61.4844 16.2617 61.1719 15.7148 60.957 15.0898C60.7487 14.4583 60.6445 13.7747 60.6445 13.0391V12.8242C60.6445 12.6615 60.6738 12.502 60.7324 12.3457C60.791 12.1895 60.8626 12.0299 60.9473 11.8672C61.0384 11.7044 61.1198 11.5319 61.1914 11.3496C61.4323 10.7637 61.7611 10.2201 62.1777 9.71875C62.6009 9.21745 63.1055 8.8138 63.6914 8.50781C64.2839 8.19531 64.9544 8.03906 65.7031 8.03906ZM65.3516 9.51367C64.6875 9.51367 64.1406 9.66667 63.7109 9.97266C63.2878 10.2786 62.972 10.6855 62.7637 11.1934C62.5553 11.6947 62.4512 12.2383 62.4512 12.8242V13.0391C62.4512 13.5339 62.5098 14.0026 62.627 14.4453C62.7441 14.888 62.9199 15.2819 63.1543 15.627C63.3952 15.9655 63.6979 16.2324 64.0625 16.4277C64.4336 16.623 64.8698 16.7207 65.3711 16.7207C65.8724 16.7207 66.3053 16.623 66.6699 16.4277C67.0345 16.2324 67.334 15.9655 67.5684 15.627C67.8027 15.2819 67.9785 14.888 68.0957 14.4453C68.2129 14.0026 68.2715 13.5339 68.2715 13.0391V12.8242C68.2715 12.3815 68.2129 11.9616 68.0957 11.5645C67.9785 11.1673 67.7995 10.8158 67.5586 10.5098C67.3242 10.2038 67.0215 9.96289 66.6504 9.78711C66.2858 9.60482 65.8529 9.51367 65.3516 9.51367ZM79.1309 12.0137V13.4785H73.5449V12.0137H79.1309ZM73.9258 7.43359V18H72.1191V7.43359H73.9258ZM80.5957 7.43359V18H78.7793V7.43359H80.5957ZM87.8906 18.1953C87.1549 18.1953 86.4876 18.0716 85.8887 17.8242C85.2962 17.5703 84.7852 17.2155 84.3555 16.7598C83.9323 16.304 83.6068 15.7637 83.3789 15.1387C83.151 14.5137 83.0371 13.8301 83.0371 13.0879V12.6777C83.0371 11.8184 83.1641 11.0534 83.418 10.3828C83.6719 9.70573 84.0169 9.13281 84.4531 8.66406C84.8893 8.19531 85.3841 7.84049 85.9375 7.59961C86.4909 7.35872 87.0638 7.23828 87.6562 7.23828C88.4115 7.23828 89.0625 7.36849 89.6094 7.62891C90.1628 7.88932 90.6152 8.25391 90.9668 8.72266C91.3184 9.1849 91.5788 9.73177 91.748 10.3633C91.9173 10.9883 92.002 11.6719 92.002 12.4141V13.2246H84.1113V11.75H90.1953V11.6133C90.1693 11.1445 90.0716 10.6888 89.9023 10.2461C89.7396 9.80339 89.4792 9.4388 89.1211 9.15234C88.763 8.86589 88.2747 8.72266 87.6562 8.72266C87.2461 8.72266 86.8685 8.81055 86.5234 8.98633C86.1784 9.1556 85.8822 9.40951 85.6348 9.74805C85.3874 10.0866 85.1953 10.5 85.0586 10.9883C84.9219 11.4766 84.8535 12.0397 84.8535 12.6777V13.0879C84.8535 13.5892 84.9219 14.0612 85.0586 14.5039C85.2018 14.9401 85.4069 15.3242 85.6738 15.6562C85.9473 15.9883 86.276 16.2487 86.6602 16.4375C87.0508 16.6263 87.4935 16.7207 87.9883 16.7207C88.6263 16.7207 89.1667 16.5905 89.6094 16.3301C90.0521 16.0697 90.4395 15.7214 90.7715 15.2852L91.8652 16.1543C91.6374 16.4993 91.3477 16.8281 90.9961 17.1406C90.6445 17.4531 90.2116 17.707 89.6973 17.9023C89.1895 18.0977 88.5872 18.1953 87.8906 18.1953ZM98.4961 18.1953C97.7604 18.1953 97.0931 18.0716 96.4941 17.8242C95.9017 17.5703 95.3906 17.2155 94.9609 16.7598C94.5378 16.304 94.2122 15.7637 93.9844 15.1387C93.7565 14.5137 93.6426 13.8301 93.6426 13.0879V12.6777C93.6426 11.8184 93.7695 11.0534 94.0234 10.3828C94.2773 9.70573 94.6224 9.13281 95.0586 8.66406C95.4948 8.19531 95.9896 7.84049 96.543 7.59961C97.0964 7.35872 97.6693 7.23828 98.2617 7.23828C99.0169 7.23828 99.668 7.36849 100.215 7.62891C100.768 7.88932 101.221 8.25391 101.572 8.72266C101.924 9.1849 102.184 9.73177 102.354 10.3633C102.523 10.9883 102.607 11.6719 102.607 12.4141V13.2246H94.7168V11.75H100.801V11.6133C100.775 11.1445 100.677 10.6888 100.508 10.2461C100.345 9.80339 100.085 9.4388 99.7266 9.15234C99.3685 8.86589 98.8802 8.72266 98.2617 8.72266C97.8516 8.72266 97.474 8.81055 97.1289 8.98633C96.7839 9.1556 96.4876 9.40951 96.2402 9.74805C95.9928 10.0866 95.8008 10.5 95.6641 10.9883C95.5273 11.4766 95.459 12.0397 95.459 12.6777V13.0879C95.459 13.5892 95.5273 14.0612 95.6641 14.5039C95.8073 14.9401 96.0124 15.3242 96.2793 15.6562C96.5527 15.9883 96.8815 16.2487 97.2656 16.4375C97.6562 16.6263 98.099 16.7207 98.5938 16.7207C99.2318 16.7207 99.7721 16.5905 100.215 16.3301C100.658 16.0697 101.045 15.7214 101.377 15.2852L102.471 16.1543C102.243 16.4993 101.953 16.8281 101.602 17.1406C101.25 17.4531 100.817 17.707 100.303 17.9023C99.7949 18.0977 99.1927 18.1953 98.4961 18.1953Z" fill="#7875FE"/>
<path d="M129.707 12.2071C130.098 11.8166 130.098 11.1834 129.707 10.7929L123.343 4.42893C122.953 4.03841 122.319 4.03841 121.929 4.42893C121.538 4.81946 121.538 5.45262 121.929 5.84315L127.586 11.5L121.929 17.1569C121.538 17.5474 121.538 18.1805 121.929 18.5711C122.319 18.9616 122.953 18.9616 123.343 18.5711L129.707 12.2071ZM109 12.5H129V10.5H109V12.5Z" fill="#7875FE"/>
</svg>
