<svg width="116" height="33" viewBox="0 0 116 33" fill="none" xmlns="http://www.w3.org/2000/svg">
<g id="hahnemuehle-logo-vector 1" clip-path="url(#clip0_1_101)">
<path id="Vector" d="M36.8674 29.1258V17.6493H35.4213V22.5876H30.4659V17.6493H29.0198V29.1258H30.4659V23.9308H35.4405V29.1258H36.8674ZM45.467 23.2789C45.467 21.4814 44.6957 20.553 42.3434 20.553C41.4564 20.553 40.4152 20.6913 39.6632 20.9283L39.7982 22.0937C40.4538 21.9555 41.4757 21.8172 42.2469 21.8172C43.5774 21.8172 44.0209 22.1925 44.0209 23.2394V24.5431H41.8613C40.2031 24.5431 39.3547 25.1752 39.3547 26.9135C39.3547 28.395 40.0103 29.3234 41.5335 29.3234C42.5169 29.3234 43.4617 29.0468 44.1944 28.5332L44.2908 29.1653H45.4862L45.467 23.2789ZM44.0401 27.3875C43.4038 27.8024 42.6326 28.0789 41.9192 28.0789C40.9165 28.0789 40.7623 27.7234 40.7623 26.874C40.7623 26.0246 41.0901 25.748 41.9577 25.748H44.0401V27.3875ZM54.2979 29.1258V22.6863C54.2979 21.4024 53.8352 20.553 52.524 20.553C51.5792 20.553 50.2681 20.9678 49.3619 21.4419V17.1159L47.9543 17.3135V29.1456H49.3619V22.8246C50.2488 22.3703 51.5021 21.9555 52.0998 21.9555C52.6204 21.9555 52.8904 22.1727 52.8904 22.7258V29.1456H54.2979V29.1258ZM63.2639 29.1258V22.6863C63.2639 21.4024 62.8011 20.553 61.49 20.553C60.5259 20.553 59.0991 20.9876 58.1928 21.4616L58.0578 20.7505H56.901V29.1456H58.3085V22.8048C59.1955 22.3505 60.4488 21.9555 61.0465 21.9555C61.5671 21.9555 61.837 22.1727 61.837 22.7258V29.1456H63.2639V29.1258ZM66.8695 26.2024V25.511H71.7478V23.753C71.7478 22.0147 71.0922 20.5727 68.6627 20.5727C66.2332 20.5727 65.462 21.9752 65.462 23.7135V26.2221C65.462 28.1184 66.2911 29.3036 68.7013 29.3036C69.7232 29.3036 70.8223 29.1258 71.5935 28.8295L71.42 27.6641C70.5138 27.9011 69.6461 28.0592 68.8363 28.0592C67.2359 28.0592 66.8695 27.5258 66.8695 26.2024ZM66.8695 23.595C66.8695 22.4098 67.3323 21.7777 68.6627 21.7777C69.9932 21.7777 70.3788 22.4493 70.3788 23.595V24.2863H66.8695V23.595ZM85.2834 29.1258V22.6863C85.2834 21.4024 84.8207 20.553 83.5095 20.553C82.4876 20.553 81.0993 20.9678 80.116 21.4616C79.8846 20.8888 79.4026 20.553 78.5542 20.553C77.5901 20.553 76.1633 20.9876 75.257 21.4616L75.1221 20.7505H73.9652V29.1456H75.3727V22.8048C76.2597 22.3505 77.513 21.9555 78.1107 21.9555C78.6313 21.9555 78.9012 22.1727 78.9012 22.7258V29.1456H80.3088V22.8048C81.1958 22.3505 82.3719 21.9555 83.0468 21.9555C83.5674 21.9555 83.8373 22.1727 83.8373 22.7258V29.1456H85.2834V29.1258ZM87.8093 20.7505V27.19C87.8093 28.474 88.2721 29.3234 89.5832 29.3234C90.5473 29.3234 91.9742 28.8888 92.8804 28.4147L93.0154 29.1258H94.1723V20.7308H92.7647V27.0715C91.8778 27.5258 90.6245 27.9209 90.0267 27.9209C89.5061 27.9209 89.2362 27.7036 89.2362 27.1505V20.7308L87.8093 20.7505ZM88.9469 19.4666H90.2581V18.0246H88.9469V19.4666ZM91.8585 19.4666H93.1696V18.0246H91.8585V19.4666ZM103.215 29.1258V22.6863C103.215 21.4024 102.753 20.553 101.441 20.553C100.497 20.553 99.1855 20.9678 98.2792 21.4419V17.1159L96.8717 17.3135V29.1456H98.2792V22.8246C99.1662 22.3703 100.419 21.9555 101.017 21.9555C101.538 21.9555 101.808 22.1727 101.808 22.7258V29.1456H103.215V29.1258ZM107.245 29.1258V17.0962L105.838 17.2937V29.1258H107.245ZM110.909 26.2024V25.511H115.787V23.753C115.787 22.0147 115.131 20.5727 112.702 20.5727C110.272 20.5727 109.501 21.9752 109.501 23.7135V26.2221C109.501 28.1184 110.33 29.3036 112.74 29.3036C113.762 29.3036 114.861 29.1258 115.633 28.8295L115.459 27.6641C114.553 27.9011 113.685 28.0592 112.875 28.0592C111.275 28.0592 110.909 27.5258 110.909 26.2024ZM110.909 23.595C110.909 22.4098 111.371 21.7777 112.702 21.7777C114.032 21.7777 114.418 22.4493 114.418 23.595V24.2863H110.909V23.595Z" fill="#6F7072"/>
<path id="Vector_2" d="M22.734 13.2048C22.599 11.664 21.9434 10.3011 20.8637 9.41219C19.8996 8.60231 18.6656 8.20725 17.4701 8.36527C16.0047 8.5233 14.8093 9.66898 14.0573 10.5974C13.2089 11.6245 12.6304 12.7505 12.3219 13.5603C11.5699 12.8887 11.0879 12.0986 10.8565 11.1307C10.6637 10.3011 10.4516 8.66157 10.2974 7.47639C10.1817 6.68626 10.1238 6.05416 10.066 5.83688C9.91173 5.10601 9.42969 3.86157 9.12119 3.20972C9.79604 3.07145 10.3166 2.89367 10.818 2.39984C11.3193 1.88626 12.1291 1.09614 12.1484 1.09614L12.6304 0.622062L11.9556 0.562805C11.8206 0.543052 8.38848 0.286261 7.81004 0.306014C7.40512 0.325768 6.9038 0.543051 6.49889 0.938113C6.1711 1.23441 5.74691 1.74799 5.4384 2.57762C5.1299 2.63688 2.33407 3.18996 2.33407 3.18996V3.80231L2.56544 3.86157C3.43312 4.0591 4.53217 4.53317 5.18774 5.027L5.14918 5.04676C4.59001 5.42206 3.83803 5.93564 3.20174 6.52824C2.39191 7.27885 2.00628 7.95046 2.06412 8.54305C2.10269 8.95787 2.27622 9.27392 2.56544 9.4912C2.79682 9.64922 3.08605 9.72824 3.41383 9.72824C3.0282 10.4196 2.81611 10.9529 2.66185 11.4665C2.46904 12.1776 2.39191 12.8887 2.48832 13.7776C2.60401 15.1406 3.27886 16.5035 4.05013 17.6887H0.0588379V27.1505C0.0588379 27.9998 0.232373 28.8097 0.598723 29.5208C0.92651 30.1924 1.38927 30.7653 1.96772 31.2591C3.00892 32.1282 4.39719 32.6418 5.68906 32.6418C6.98093 32.6418 8.3692 32.1282 9.41041 31.2591C9.98886 30.785 10.4516 30.1924 10.7794 29.5208C11.1072 28.869 11.2807 28.1579 11.3193 27.4072C11.3964 26.1431 11.8206 24.2665 12.4762 22.8048C13.2089 21.1455 14.1922 20.2764 15.4455 20.1579C16.1204 20.0986 16.7953 20.1974 17.3737 20.4739C17.8557 20.6912 18.3185 21.027 18.6849 21.4418C19.3597 22.1727 19.6875 23.0023 19.7261 23.1801V23.1603L19.9574 23.9307L20.2852 23.2591C20.8058 22.1529 21.5385 20.4147 22.0784 18.3801C22.6761 16.4443 22.869 14.6863 22.734 13.2048ZM4.51289 18.2616L4.64786 18.4394C5.07205 19.0122 5.51553 19.506 5.88188 19.9011L6.71099 20.8097C8.04142 22.2319 9.08262 23.3579 9.56466 24.1875C10.1817 25.2542 10.6251 26.3011 10.7794 27.0912C10.7987 27.1702 10.818 27.3282 10.818 27.3875C10.7408 29.0863 9.87317 30.1529 9.12119 30.785C8.17639 31.5751 6.92308 32.0492 5.76619 32.0492C4.59001 32.0492 3.35599 31.5949 2.41119 30.785C1.63993 30.1332 0.714412 28.9677 0.714412 27.1505V18.3011L4.51289 18.2616ZM5.51553 5.52083L5.6505 5.42206C5.74691 5.56033 5.80475 5.67885 5.80475 5.81712C5.84332 6.2912 5.41912 6.80478 4.89852 7.47639C4.55145 7.91095 4.16582 8.42453 3.78019 9.01712C3.41384 9.11589 3.10533 9.07638 2.89323 8.91836C2.75826 8.79984 2.66185 8.64182 2.64257 8.42453C2.60401 8.02947 2.9318 7.51589 3.58737 6.90354C4.22366 6.38996 4.97564 5.89614 5.51553 5.52083ZM21.5964 18.2418C21.1722 19.8616 20.613 21.3233 20.1117 22.3702C19.9189 21.9752 19.6297 21.5208 19.2247 21.0863C18.5306 20.2961 17.2966 19.4072 15.4455 19.5653C14.655 19.6443 13.9416 19.9801 13.3246 20.5332C12.8233 21.0073 12.3798 21.6986 11.9941 22.548C11.5507 23.5751 11.2422 24.7406 11.0108 25.827C10.7794 25.2147 10.4709 24.5628 10.066 23.8714C9.54538 22.9826 8.48489 21.8369 7.13518 20.3949L6.30607 19.4863C5.41912 18.5184 4.66714 17.5307 4.12725 16.5826C3.52952 15.5356 3.18246 14.548 3.10533 13.6986C3.0282 12.8887 3.08605 12.2566 3.25958 11.6048C3.41383 11.0122 3.70306 10.3998 4.22366 9.51095C4.59001 8.8591 4.99492 8.34552 5.38056 7.8912C5.99757 7.12083 6.46033 6.50848 6.40248 5.79737C6.34464 5.20478 5.8626 4.65169 4.9178 4.13811C4.51288 3.92083 4.05013 3.7233 3.62593 3.56527C4.53217 3.3875 5.70834 3.15046 5.70834 3.15046L5.88188 3.11095L5.93972 2.95293C6.36392 1.55046 7.30872 0.91836 7.82932 0.898607C8.19567 0.878854 9.95029 1.01713 11.2229 1.09614C10.9529 1.35293 10.6251 1.68873 10.3745 1.94552C9.96957 2.36034 9.50682 2.47885 8.83196 2.63688L8.17639 2.7949L8.42705 3.17021C8.56202 3.36774 9.25616 5.027 9.46825 5.9554C9.5261 6.15293 9.60322 6.80478 9.68035 7.53564C9.8346 8.79984 10.0467 10.3998 10.2588 11.269C10.548 12.5134 11.165 13.4813 12.2255 14.2912L12.5726 14.548L12.6304 14.3307C12.9197 13.3628 13.7102 11.9406 14.4815 10.9924C15.1563 10.143 16.2554 9.11589 17.5087 8.95787C18.5306 8.8196 19.6104 9.17515 20.4588 9.88626C21.4036 10.6764 22.0013 11.8813 22.117 13.264C22.2712 14.6665 22.0784 16.3455 21.5964 18.2418ZM7.86788 3.64428C7.82932 3.17021 7.40512 2.7949 6.92308 2.85416C6.46033 2.89367 6.09398 3.32824 6.15182 3.82206C6.19038 4.29614 6.61458 4.67145 7.09662 4.61219C7.55938 4.55293 7.90645 4.11836 7.86788 3.64428ZM7.27015 3.70354C7.28943 3.84182 7.17374 3.98009 7.03877 3.99984C6.9038 4.01959 6.76883 3.90108 6.74955 3.7628C6.73027 3.62453 6.84596 3.48626 6.98093 3.46651C7.13518 3.427 7.25087 3.52577 7.27015 3.70354ZM5.01421 28.2566V28.3949C5.01421 28.5924 4.99492 28.6912 4.62857 28.6912C4.45504 28.6912 4.22366 28.6714 4.03085 28.6122L3.973 29.027C4.14654 29.0863 4.37791 29.1258 4.64786 29.1258C5.34199 29.1258 5.49625 28.869 5.49625 28.4344V28.1974C5.49625 27.8418 5.36127 27.6048 4.89852 27.585C4.76355 27.585 4.68642 27.5653 4.55145 27.5653V26.9134H5.45768V26.4986H4.05013V27.9603C4.24294 27.9603 4.3972 27.9603 4.66714 27.9801C4.97564 27.9998 5.01421 28.0591 5.01421 28.2566ZM2.14125 29.0665H3.64521V28.6517H3.12461V26.4986H2.70042L2.06412 26.6961L2.17981 27.111L2.66185 26.9727V28.6517H2.16053V29.0665H2.14125ZM5.88188 28.2764V28.4344C5.88188 28.8887 6.09398 29.106 6.71099 29.106C7.328 29.106 7.5401 28.9282 7.5401 28.4344V28.2764C7.5401 28.0591 7.46297 27.9011 7.17374 27.7628C7.42441 27.6245 7.48225 27.4665 7.48225 27.269V27.0912C7.48225 26.6961 7.28943 26.4591 6.73027 26.4591C6.1711 26.4591 5.97829 26.6961 5.97829 27.0912V27.269C5.97829 27.4665 6.05541 27.6245 6.28679 27.7628C5.959 27.9011 5.88188 28.0591 5.88188 28.2764ZM7.01949 27.269C7.01949 27.4072 6.98093 27.4665 6.71099 27.585C6.44104 27.4665 6.40248 27.427 6.40248 27.269V27.111C6.40248 26.9529 6.46033 26.8739 6.71099 26.8739C6.96165 26.8739 7.01949 26.9727 7.01949 27.111V27.269ZM6.34464 28.3159C6.34464 28.1579 6.3832 28.0789 6.71099 27.9406C7.03877 28.0789 7.07734 28.1381 7.07734 28.3159V28.4344C7.07734 28.6319 6.98093 28.6912 6.71099 28.6912C6.44104 28.6912 6.34464 28.6122 6.34464 28.4344V28.3159ZM8.69699 26.4986L7.79076 28.0393V28.4739H8.88981V29.0468H9.35256V28.4739H9.66107V28.0591H9.35256V26.4789H8.69699V26.4986ZM8.27279 28.0789L8.88981 26.9529V28.0789H8.27279Z" fill="#E1001A"/>
</g>
<defs>
<clipPath id="clip0_1_101">
<rect width="115.882" height="32.5926" fill="white" transform="translate(0.0588379 0.148193)"/>
</clipPath>
</defs>
</svg>
