<svg width="212" height="21" viewBox="0 0 212 21" fill="none" xmlns="http://www.w3.org/2000/svg">
<g id="royal-talens-bv-logo-vector 1" clip-path="url(#clip0_1_264)">
<path id="Vector" d="M12.872 19.5722L10.5112 20.1942L5.36687 12.4383L2.47756 12.3651L2.6185 19.8649L0.292969 20.0478V1.09712L4.8031 0.950782C6.84675 0.877613 8.43234 1.35321 9.52464 2.30441C10.6169 3.29219 11.1807 4.60922 11.1807 6.18235C11.1807 7.2433 10.8284 8.26766 10.1589 9.29202C9.48941 10.353 8.53805 11.1578 7.26958 11.67V11.7432L12.872 19.5722ZM2.58327 2.45074L2.44233 11.0847L5.96587 10.9383C7.23434 10.5725 8.74946 9.03592 8.74946 6.76769C8.74946 4.24337 7.16387 2.59708 4.52122 2.52392L2.58327 2.45074ZM23.8302 20.1942C18.7563 20.1942 14.7747 16.2796 14.7747 10.4261C14.7747 5.04823 19.2848 0.658112 24.3587 0.658112C29.4679 0.658112 33.4495 4.60922 33.4495 10.4627C33.4142 15.8772 28.6927 20.1942 23.8302 20.1942ZM24.1826 18.621C28.1642 18.621 30.9478 15.5479 30.9478 10.6456C30.9478 5.74333 27.7061 2.23123 24.0064 2.23123C20.06 2.23123 17.2412 5.26773 17.2412 10.2432C17.2412 15.0358 20.5533 18.621 24.1826 18.621ZM43.4211 19.8649L41.0956 20.0478V11.0481L34.2247 1.28004L36.7264 0.950782L42.505 9.69444L48.4598 0.950782L50.4682 1.28004L43.3859 11.1578L43.4211 19.8649ZM66.2536 19.8283L63.8224 20.0844L62.0254 15.0723L53.2518 15.2553L51.4548 20.0478L49.4463 19.8283L57.3038 0.950782L58.3609 0.694693L66.2536 19.8283ZM57.5505 4.20679L53.9212 13.5724L61.4616 13.7187L57.5505 4.20679ZM74.3225 19.8649L69.4953 20.0112V1.1337L71.8208 0.950782L71.7151 8.96275L71.7856 18.4015L79.5374 18.1088L79.3612 19.9015L74.3225 19.8649ZM127.916 19.8649L125.59 20.0478V2.52392L118.543 2.78L118.719 0.950782H126.541L134.751 0.76786L134.575 2.70684L127.951 2.45074L127.81 9.40177L127.916 19.8649ZM150.361 19.8283L147.929 20.0844L146.132 15.0723L137.359 15.2553L135.562 20.0478L133.553 19.8283L141.411 0.950782L142.468 0.694693L150.361 19.8283ZM141.657 4.20679L138.028 13.5724L145.568 13.7187L141.657 4.20679ZM158.429 19.8649L153.602 20.0112V1.1337L155.928 0.950782L155.822 8.92618L155.892 18.3649L163.644 18.0723L163.468 19.8649H158.429ZM170.022 19.8649L166.956 20.0112V1.09712L171.326 0.950782H176.752L176.576 2.78L169.282 2.48733L169.106 9.65787L175.448 9.47494L175.061 11.2676L169.071 11.0847L169.247 18.3649L177.351 18.1088L177.175 19.9015H170.022V19.8649ZM183.094 19.8649L181.015 20.0478L181.191 1.1337L182.883 0.950782L194.123 15.5845L193.911 1.1337L195.99 0.950782L195.744 19.8649L194.969 20.0112L182.848 4.71898L183.094 19.8649ZM205.152 20.0478C204.095 20.0478 203.037 19.8283 202.016 19.3893C200.994 18.9503 200.219 18.4015 199.655 17.8528L200.782 16.5723C202.192 17.6698 203.707 18.5113 205.751 18.5113C208.006 18.5113 209.556 17.4503 209.556 15.365C209.556 14.2675 209.168 13.4261 208.464 12.9139C207.759 12.4017 206.772 11.8895 205.574 11.3773C203.073 10.353 200.395 9.29202 200.395 5.81651C200.395 3.0361 202.826 0.804447 206.138 0.804447C207.865 0.804447 209.662 1.31663 210.719 2.12149L210.296 3.76778C209.239 3.2556 207.195 2.48733 205.645 2.48733C203.918 2.48733 202.474 3.32877 202.474 5.15798C202.474 6.32868 202.861 7.17012 203.566 7.6823C204.271 8.23107 205.257 8.74325 206.42 9.25544C208.887 10.353 211.635 11.231 211.635 14.6333C211.67 18.2186 208.534 20.0478 205.152 20.0478Z" fill="#333333"/>
<path id="Vector_2" d="M89.7917 0.693634V19.9736H108.361V0.693634H89.7917ZM99.0587 19.1687C94.3371 19.1687 90.5317 15.2176 90.5317 10.3153C90.5317 5.41302 94.3371 1.46191 99.0587 1.46191C103.78 1.46191 107.586 5.41302 107.586 10.3153C107.586 15.2176 103.78 19.1687 99.0587 19.1687ZM91.5888 11.8884C91.7649 12.7665 92.6106 14.8884 94.0552 14.3762C95.1123 13.9738 95.1828 12.9494 95.3942 11.7787C95.5703 10.6812 95.8522 8.59586 96.2046 8.15685C96.2398 8.12026 96.2046 8.08367 96.1694 8.08367C95.3237 8.12026 94.7599 10.0958 94.4428 11.0104C93.8438 12.8031 92.0116 12.9494 91.6945 11.8519C91.6945 11.8519 91.5888 11.8519 91.5888 11.8884ZM106.388 8.77877C106.176 8.30318 106.035 8.12025 105.824 7.68124C106 7.16906 106.211 6.47397 106.176 6.18129C106.035 4.93743 104.414 6.25445 104.767 7.86416C104.872 8.30318 104.978 8.63244 105.049 8.92512C104.555 9.94948 104.344 9.76656 104.379 9.40071C104.414 9.14462 104.45 8.63244 104.45 8.63244C104.591 7.64466 104.097 7.5715 103.78 7.791C103.604 7.90076 103.357 8.2666 103.252 8.4861L103.357 8.01051L102.476 8.37635L102.195 9.8763C101.842 10.7177 101.455 10.8641 101.208 10.8275C101.138 10.7909 101.067 10.7543 100.997 10.7178C101.807 9.98606 102.089 9.36413 102.018 8.92512C101.948 8.44952 101.596 8.44952 101.349 8.52269C100.715 8.7422 100.186 9.40071 100.045 10.3153C100.01 10.608 100.01 10.9007 100.08 11.1202C99.5167 12.0348 99.4815 11.5226 99.5519 11.1568C99.7281 10.3153 100.292 6.83981 100.292 6.83981L99.411 7.20565C99.411 7.20565 98.8825 10.2422 98.6711 11.4129C98.2482 12.4738 98.1425 12.0714 98.213 11.7055C98.3539 10.8641 98.5654 9.76656 98.5654 9.76656L97.7197 10.0958C97.7197 10.0958 97.6492 10.3519 97.5788 10.7909C97.4731 10.4617 97.2616 10.2422 96.9798 10.2056C96.4512 10.1324 95.8875 10.8641 95.7113 11.7421C95.5351 12.6567 95.817 13.4616 96.3455 13.4982C96.7331 13.5347 97.1207 13.2055 97.3674 12.6933C97.5083 13.0226 97.8606 12.986 98.0721 12.8396C98.2835 12.6933 98.4949 12.3275 98.6358 12.0348C98.7063 12.4738 99.0587 12.4738 99.3053 12.3275C99.6929 12.108 100.045 11.5958 100.221 11.3763C100.362 11.6324 100.609 11.7787 100.891 11.7421C101.278 11.7055 101.737 11.1933 102.089 10.608L101.948 11.3031L102.829 10.9373L103.146 9.25438C103.569 8.19343 103.71 8.55927 103.674 8.88853C103.674 8.88853 103.639 9.18121 103.569 9.65681C103.463 10.6446 103.886 10.6812 104.203 10.4982C104.661 10.2056 104.943 9.6568 105.19 9.14462C105.366 9.58363 105.577 9.94948 105.753 10.4982C107.022 14.1933 102.23 13.8274 100.327 13.9006C98.5654 13.9738 98.3892 15.5469 98.213 16.7542C104.767 16.8273 107.727 11.8153 106.388 8.77877ZM97.4378 11.5958C97.4026 12.0348 97.1207 12.5104 96.8741 12.5104C96.6274 12.5104 96.4512 12.1445 96.5217 11.6324C96.5922 11.1933 96.8036 10.7909 97.0502 10.7909C97.2969 10.7909 97.4731 11.1568 97.4378 11.5958ZM100.891 10.4251C100.856 10.3153 100.856 10.2056 100.856 10.0592C100.891 9.62021 101.102 9.14462 101.384 9.07146C101.49 9.03487 101.596 9.07146 101.596 9.25438C101.596 9.65681 101.208 10.1324 100.891 10.4251ZM105.683 7.35199C105.648 7.3154 105.648 7.27882 105.648 7.24224C105.119 5.9252 105.824 5.74228 105.894 6.29104C105.894 6.58372 105.824 6.98614 105.683 7.35199ZM99.9748 3.5838C99.8691 4.42524 99.7986 6.18129 98.213 6.43738C95.6056 6.87639 92.1173 8.04709 91.5535 10.6812C91.5535 10.7177 91.4478 10.7178 91.4478 10.7178C91.3773 6.58372 94.9361 3.5838 99.9748 3.5838Z" fill="#FF0000"/>
</g>
<defs>
<clipPath id="clip0_1_264">
<rect width="211.765" height="19.7556" fill="white" transform="translate(0.117676 0.621979)"/>
</clipPath>
</defs>
</svg>
