<svg width="105" height="32" viewBox="0 0 105 32" fill="none" xmlns="http://www.w3.org/2000/svg">
<g id="Frame 225">
<path id="Vector" fill-rule="evenodd" clip-rule="evenodd" d="M21.316 4.44446C23.1263 5.57303 25.344 8.61148 26.1134 10.8686C27.0185 13.3862 26.1586 15.8604 24.0315 17.6834C20.5466 20.6351 18.329 22.6752 16.6997 24.5417C15.4325 26.0175 13.8484 27.8839 13.9842 31.7037C10.6351 27.8405 10.0015 21.8939 13.6222 18.0307C17.5143 13.8637 18.2385 12.9955 19.6867 11.1725C21.0445 9.4362 21.5423 6.96203 21.316 4.44446Z" fill="#558EC0"/>
<path id="Vector_2" fill-rule="evenodd" clip-rule="evenodd" d="M6.17704 23.4074C-3.2287 15.392 -0.659319 4.25944 13.1052 1.09781C14.5734 0.741565 15.2157 0.607975 15.9498 0.296265C16.7298 1.85482 16.8216 3.05713 14.8946 4.3485C10.077 7.51014 2.7818 11.8296 6.17704 23.4074Z" fill="#558EC0"/>
<path id="Vector_3" fill-rule="evenodd" clip-rule="evenodd" d="M40.5401 25.3838C39.7701 25.6902 39.385 25.7778 38.2299 25.7778C33.6578 25.7778 30 22.3199 30 18.0741C30 13.8283 33.7059 10.3704 38.2299 10.3704C39 10.3704 39.7701 10.4579 40.5882 10.7205V14.5286C39.8663 14.1347 39.1444 13.9596 38.2299 13.9596C35.7273 13.9596 33.7059 15.798 33.7059 18.0741C33.7059 20.3502 35.7273 22.1885 38.2299 22.1885C39.2888 22.1885 39.8182 22.0135 40.492 21.6633L40.5401 25.3838Z" fill="#053D5B"/>
<path id="Vector_4" fill-rule="evenodd" clip-rule="evenodd" d="M92.3528 18.0741C92.3528 22.3199 88.777 25.7778 84.4116 25.7778C79.9999 25.7778 76.4705 22.3199 76.4705 18.0741C76.4705 13.8283 80.0463 10.3704 84.4116 10.3704C88.777 10.3704 92.3528 13.8283 92.3528 18.0741ZM84.3652 13.9596C81.9503 13.9596 79.9999 15.798 79.9999 18.0741C79.9999 20.3502 81.9503 22.1885 84.3652 22.1885C86.7801 22.1885 88.7305 20.3502 88.7305 18.0741C88.7305 15.798 86.7801 13.9596 84.3652 13.9596Z" fill="#053D5B"/>
<path id="Vector_5" fill-rule="evenodd" clip-rule="evenodd" d="M58.7591 25.7334H54.7058V16.3202C54.7058 13.1677 57.4563 10.3704 60.8823 10.3704C64.3083 10.3704 67.0588 13.1677 67.0588 16.3202V25.7778H63.0054V16.3202C63.0054 14.9437 62.0404 14.1001 60.834 14.1001C59.6277 14.1001 58.6626 15.0769 58.6626 16.3202L58.7591 25.7334Z" fill="#053D5B"/>
<path id="Vector_6" fill-rule="evenodd" clip-rule="evenodd" d="M97.3896 25.7334H93.5293V16.3202C93.5293 13.1677 96.1488 10.3704 99.4116 10.3704C102.675 10.3704 105.294 13.1677 105.294 16.3202V25.7778H101.434V16.3202C101.434 14.9881 100.515 14.1001 99.3657 14.1001C98.2168 14.1001 97.2977 15.0769 97.2977 16.3202L97.3896 25.7334Z" fill="#053D5B"/>
<path id="Vector_7" fill-rule="evenodd" clip-rule="evenodd" d="M45.6249 21.7372V25.7334H41.7646V16.3202C41.7646 13.1677 44.3841 10.3704 47.647 10.3704C50.9099 10.3704 53.5294 13.1677 53.5294 16.3202V25.7778H49.6691V21.6928H45.6249V21.7372ZM49.715 18.2295V16.3646C49.715 15.0325 48.7959 14.1445 47.647 14.1445C46.59 14.1445 45.579 15.1214 45.579 16.3646V18.2739H49.715V18.2295Z" fill="#053D5B"/>
<path id="Vector_8" fill-rule="evenodd" clip-rule="evenodd" d="M73.644 16.0443L74.8563 18.1963C76.9546 21.7829 74.8097 26.8042 68.2351 25.5937V22.0519C70.9396 23.0382 72.4317 21.6484 71.266 19.4516C71.266 19.4516 70.4266 17.9721 69.7738 16.8513C68.1885 14.1613 70.1935 9.58838 75.8822 10.485V14.1165C74.4367 13.0853 72.5249 14.1165 73.644 16.0443Z" fill="#053D5B"/>
</g>
</svg>
